<svg xmlns="http://www.w3.org/2000/svg" xmlns:xlink="http://www.w3.org/1999/xlink" version="1.1" id="Layer_1" x="0px" y="0px" viewBox="0 0 292 92" style="enable-background:new 0 0 292 92;" xml:space="preserve" width="500"  height="500" >
<style type="text/css">
	.st0{fill:#73C054;}
	.st1{fill:#00883E;}
	.st2{fill:#FFFFFF;}
	.st3{fill:#004989;}
</style>
<g>
	<path class="st0" d="M17.6,71.8c6.8,3.3,14.6,4.1,22.4,2.5c0.8-6.1,2-12.8,3.5-20.6C33.2,70.2,24,72.9,17.6,71.8L17.6,71.8z"/>
	<path class="st0" d="M62.3,29.4L61.4,30c0,0-6,4.1-8.1,9.6c-1.2,4.1-1.9,6.8-4.1,12.2c-3.8,8.1-6.1,15.4-7.4,22   c19.5-5.2,38-26.2,38.2-62.5C76.2,19.7,67.7,25.2,62.3,29.4L62.3,29.4z"/>
	<path class="st1" d="M32.8,38.4C54.5,34,75.1,19.2,80.1,10.2c0-0.8,0-1.6,0-2.5c0,0-1.8,13.6-39.9,12.6   c-35.3-0.9-43,33.5-28.2,47.6c16.9,10.6,27.3-13.6,31.3-25.8c0.7-3.8-5.8-2.7-5.8-2.7s-8.4,1-11,1.2L14.2,42l7.5-1.6L32.8,38.4   L32.8,38.4z"/>
	<path class="st2" d="M80.1,11.3c-3.9,8.4-12.4,14-17.9,18.1L61.5,30c0,0-6,4.1-8.1,9.6c-1.2,4.1-1.9,6.8-4.1,12.2   c-3.8,8.1-6.1,15.4-7.4,22L40,74.3c0.8-6.1,2-12.8,3.5-20.6C33.2,70.2,24,72.9,17.6,71.8c0,0-3.6-1.9-5.7-3.8   c17,10.6,27.3-13.6,31.3-25.8c0.7-3.8-5.8-2.7-5.8-2.7s-8.4,1-11,1.2L14.2,42l7.5-1.6l11.1-2.1C54.5,34,75.1,19.2,80.1,10.2   L80.1,11.3L80.1,11.3z M47.9,23c2-0.7,4,0.6,4.6,2.9c0.6,2.3-0.5,4.8-2.4,5.6c-2,0.8-4.1-0.4-4.7-2.8C44.8,26.3,45.9,23.7,47.9,23   L47.9,23z"/>
	<path class="st3" d="M97.6,25.7h3.4l12.6,27.1c1.6,3.4,2,4.3,4.4,5v0.6h-13.3v-0.6c1.3-0.2,2.4-0.7,2.4-2c0-0.5-0.3-1.3-0.8-2.5   L104,48H91l-2.5,5.2c-0.5,1-0.8,1.9-0.8,2.6c0,1.4,1.5,1.8,2.4,2v0.6H79.9v-0.6c2.1-0.2,2.9-1.7,4-4L97.6,25.7L97.6,25.7z    M92.6,44.7h9.9L97.6,34L92.6,44.7L92.6,44.7z"/>
	<path class="st3" d="M127.5,42.9c-3.8-1.9-7-4.1-7-8.6c0-1.4,0.4-3,1.3-4.5c2.2-3.3,6.3-4.6,10.9-4.6c4.1,0,6.8,0.9,8.7,1.5v6.6   h-0.8c-0.7-1.7-2-4.6-7.1-4.6c-3.5,0-6.2,1.8-6.2,4.8c0,2.8,2.3,3.9,6,5.6l1.7,0.8c2.7,1.3,7.5,3.6,7.5,9.2c0,3-1.5,5.6-3.8,7.4   c-3.3,2.4-7.5,2.6-9.4,2.6c-1.3,0-2.6-0.1-3.9-0.3c-2.9-0.4-4.3-0.9-5.6-1.4v-6.5h0.8c0.4,0.9,0.9,2.2,2.3,3.2   c1.3,1,3.2,1.6,5.5,1.6c4.5,0,7.2-2.7,7.2-5.7c0-3.2-2.5-4.5-5.9-6.1L127.5,42.9L127.5,42.9z"/>
	<path class="st3" d="M147.2,30.3c0-2.1-0.3-3.4-3.1-3.7v-0.7h15.6c2.4,0,4.4,0,6.7,0.8c4,1.4,5.7,4.5,5.7,7.8   c0,1.2-0.3,2.5-0.8,3.6c-0.6,1.2-1.5,2.3-2.6,3.2c-3.4,2.8-7.9,2.9-10.3,2.9c-1.9,0-3-0.1-4.2-0.3v9.6c0,2.8,0.7,3.9,3.4,4.2v0.7   h-13.6v-0.7c2.9-0.6,3.1-1.8,3.1-4.8V30.3L147.2,30.3z M154.3,40.4c0.6,0.1,2.2,0.2,3.3,0.2c4.8,0,7.3-2.3,7.3-5.8   c0-5.2-5-5.4-6.7-5.4h-3.9V40.4L154.3,40.4z"/>
	<path class="st3" d="M186.8,26v0.6c-2.7,0.5-3.1,1.5-3.1,4.5v21.9c0,3.4,0.2,4,3.1,4.8v0.6h-13.4v-0.6c3.2-0.8,3.2-1.8,3.2-4.8   V31.1c0-2.3-0.1-4-3.2-4.5V26H186.8L186.8,26z"/>
	<path class="st3" d="M193.4,30.9c0-2.5-0.1-3.8-3.1-4.3v-0.7h15.2c3.5,0,5.8,0,8.1,1.2c2.5,1.2,4.4,3.8,4.4,7   c0,2.1-0.9,4.2-2.5,5.8c-1.2,1.1-2.3,1.6-3.1,1.9l6.7,11.3c2,3.3,2.6,4,4.5,4.6v0.6h-4.2c-4.2,0-6-1.8-7.8-4.9l-6-10   c-0.8,0-1.6,0.1-2.6,0.1c-0.5,0-1.5,0-2.4-0.1v9.6c0,3.4,0.7,4,3.3,4.6v0.6h-13.5v-0.6c3-0.5,3.1-1.9,3.1-4V30.9L193.4,30.9z    M200.5,40.2h3c0.9,0,1.8,0,2.8-0.2c3.7-0.8,4.5-3.4,4.5-5.1c0-2.6-1.4-3.8-2.2-4.3c-1.6-1.1-3.2-1.1-4.8-1.1h-3.4V40.2L200.5,40.2   z"/>
	<path class="st3" d="M222.8,30.9c0-2.8-0.4-3.9-3.1-4.3V26h13.2v0.6c-2.6,0.6-3.1,1.3-3.1,4.3v14.4c0,2.1,0,3.2,0.3,4.3   c0.9,3.6,4.1,6.2,9.2,6.2c4,0,6.5-1.6,7.6-2.9c1.8-2.1,1.9-5.1,1.9-7V30.9c0-2.8-0.2-3.7-3-4.3V26h10v0.6c-3,0.6-3.1,1.8-3.1,4.1   v14.9c0,3.3-0.2,7.4-3.9,10.5c-3.5,2.8-8.2,3.1-10.9,3.1c-4.3,0-8.1-1-10.7-2.8c-4.4-3.2-4.5-7.5-4.5-10.6V30.9L222.8,30.9z"/>
	<path class="st3" d="M263.9,42.9c-3.8-1.9-7-4.1-7-8.6c0-1.4,0.4-3,1.3-4.5c2.2-3.3,6.3-4.6,10.9-4.6c4.1,0,6.8,0.9,8.7,1.5v6.6   h-0.8c-0.7-1.7-2-4.6-7.1-4.6c-3.5,0-6.2,1.8-6.2,4.8c0,2.8,2.3,3.9,6,5.6l1.7,0.8c2.7,1.3,7.5,3.6,7.5,9.2c0,3-1.5,5.6-3.8,7.4   c-3.3,2.4-7.5,2.6-9.4,2.6c-1.3,0-2.6-0.1-3.9-0.3c-2.9-0.4-4.3-0.9-5.6-1.4v-6.5h0.8c0.4,0.9,0.9,2.2,2.3,3.2   c1.3,1,3.2,1.6,5.5,1.6c4.5,0,7.2-2.7,7.2-5.7c0-3.2-2.5-4.5-5.9-6.1L263.9,42.9L263.9,42.9z"/>
	<path class="st3" d="M283.7,31.9c-1.7,0-3-1.3-3-3c0-1.8,1.4-3,3-3c1.6,0,2.9,1.2,2.9,3C286.7,30.7,285.3,31.9,283.7,31.9   L283.7,31.9z M283.7,26.4c-1.3,0-2.3,1-2.3,2.5c0,1.4,0.9,2.5,2.3,2.5c1.3,0,2.3-1,2.3-2.5C286,27.4,285,26.4,283.7,26.4   L283.7,26.4z M283.1,30.6h-0.5v-3.3h1.3c0.8,0,1.2,0.3,1.2,1c0,0.6-0.4,0.9-0.9,0.9l0.9,1.5h-0.6l-0.9-1.4h-0.5V30.6L283.1,30.6z    M283.7,28.7c0.4,0,0.8,0,0.8-0.5c0-0.4-0.4-0.4-0.7-0.4h-0.7v1H283.7L283.7,28.7z"/>
	<polygon class="st3" points="123,70 125.8,70 125.8,75.7 132.2,75.7 132.2,70 135,70 135,84.2 132.2,84.2 132.2,77.9 125.8,77.9    125.8,84.2 123,84.2 123,70  "/>
	<polygon class="st3" points="146.7,70 156.2,70 156.2,72.1 149.5,72.1 149.5,75.7 155.2,75.7 155.2,77.9 149.5,77.9 149.5,82.1    156.4,82.1 156.4,84.2 146.7,84.2 146.7,70  "/>
	<path class="st3" d="M174.7,80.3h-5.3l-1.2,3.9h-2.9l5.2-14.2h3.3l5.1,14.2h-3L174.7,80.3L174.7,80.3z M174.1,78.4l-0.6-1.7   c-0.5-1.5-1-3.1-1.4-4.7H172c-0.4,1.6-0.9,3.2-1.4,4.7l-0.6,1.7H174.1L174.1,78.4z"/>
	<polygon class="st3" points="188.5,70 191.3,70 191.3,82.1 197.9,82.1 197.9,84.2 188.5,84.2 188.5,70  "/>
	<polygon class="st3" points="209.1,72.1 204.5,72.1 204.5,70 216.4,70 216.4,72.1 211.9,72.1 211.9,84.2 209.1,84.2 209.1,72.1     "/>
	<polygon class="st3" points="226.3,70 229.1,70 229.1,75.7 235.5,75.7 235.5,70 238.3,70 238.3,84.2 235.5,84.2 235.5,77.9    229.1,77.9 229.1,84.2 226.3,84.2 226.3,70  "/>
</g>
</svg>