<?xml version="1.0" encoding="utf-8"?>
<!-- Generator: Adobe Illustrator 19.2.1, SVG Export Plug-In . SVG Version: 6.00 Build 0)  -->
<svg version="1.1" id="layer" xmlns="http://www.w3.org/2000/svg" xmlns:xlink="http://www.w3.org/1999/xlink" x="0px" y="0px"
	 viewBox="0 0 652 652" style="enable-background:new 0 0 652 652;" xml:space="preserve">
<style type="text/css">
	.st0{clip-path:url(#SVGID_2_);fill:url(#SVGID_3_);}
	.st1{clip-path:url(#SVGID_5_);fill:url(#SVGID_6_);}
	.st2{clip-path:url(#SVGID_8_);fill:url(#SVGID_9_);}
	.st3{fill:#1C3D95;}
</style>
<g>
	<defs>
		<path id="SVGID_1_" d="M550.1,239.5c0,12.1,8.2,17.3,16.5,22.6c13.4,4.7,25.1,12.1,25.1,25.3c0,19.5-19.8,34.6-49.9,31.4v11.8
			c0,0,8.6,2.2,17.3,2.2c29.1,0,62.1-23.1,62.1-63c0-28.9-21.3-55-42.4-55C559.2,214.6,550.1,228.7,550.1,239.5"/>
	</defs>
	<clipPath id="SVGID_2_">
		<use xlink:href="#SVGID_1_"  style="overflow:visible;"/>
	</clipPath>
	
		<linearGradient id="SVGID_3_" gradientUnits="userSpaceOnUse" x1="41.7255" y1="705.4841" x2="46.1898" y2="705.4841" gradientTransform="matrix(17.7646 0 0 -17.7646 -199.4447 12806.3164)">
		<stop  offset="0" style="stop-color:#00B8EE"/>
		<stop  offset="0.3497" style="stop-color:#00B8EE"/>
		<stop  offset="0.9761" style="stop-color:#009CDC"/>
		<stop  offset="1" style="stop-color:#009CDC"/>
	</linearGradient>
	<rect x="541.8" y="214.6" class="st0" width="79.4" height="118.1"/>
</g>
<g>
	<defs>
		<path id="SVGID_4_" d="M583.9,286.3c0,17-14.9,32.8-42.1,32.4c30,3.3,49.9-11.9,49.9-31.4c0-13.1-11.7-20.6-25.1-25.3
			C575.1,267.5,583.9,273.1,583.9,286.3"/>
	</defs>
	<clipPath id="SVGID_5_">
		<use xlink:href="#SVGID_4_"  style="overflow:visible;"/>
	</clipPath>
	
		<linearGradient id="SVGID_6_" gradientUnits="userSpaceOnUse" x1="-4.7074" y1="691.6904" x2="-0.2431" y2="691.6904" gradientTransform="matrix(-6.000000e-007 -12.7857 -12.7857 6.000000e-007 9410.46 258.9414)">
		<stop  offset="0" style="stop-color:#00B8EE"/>
		<stop  offset="0.4" style="stop-color:#0086C8"/>
		<stop  offset="0.75" style="stop-color:#0072B8"/>
		<stop  offset="1" style="stop-color:#0072B8"/>
	</linearGradient>
	<rect x="541.8" y="262.1" class="st1" width="49.9" height="59.9"/>
</g>
<g>
	<defs>
		<path id="SVGID_7_" d="M498,265.5c0,17.8,12.3,36.4,30.2,36.4c11.3,0,20.4-6.6,20.4-18.6c0-16.2-24-15.9-24-35.2
			c0-18,16.2-26.3,21.6-30.5l-4.9-7.6C522.1,215.9,498,233.6,498,265.5"/>
	</defs>
	<clipPath id="SVGID_8_">
		<use xlink:href="#SVGID_7_"  style="overflow:visible;"/>
	</clipPath>
	
		<linearGradient id="SVGID_9_" gradientUnits="userSpaceOnUse" x1="48.1416" y1="723.3621" x2="52.6058" y2="723.3621" gradientTransform="matrix(11.7196 10.2392 10.2392 -11.7196 -7474.7881 8216.7412)">
		<stop  offset="0" style="stop-color:#5084C4"/>
		<stop  offset="0.5443" style="stop-color:#25489C"/>
		<stop  offset="0.8089" style="stop-color:#1C3D95"/>
		<stop  offset="1" style="stop-color:#1C3D95"/>
	</linearGradient>
	<polygon class="st2" points="519.9,184.9 594.1,249.8 526.7,327 452.4,262.1 	"/>
</g>
<g>
	<path class="st3" d="M502.3,394.9c0-6.2,5-11.2,11.2-11.2c6.2,0,11.2,5,11.2,11.2c0,6.2-5,11.2-11.2,11.2
		C507.3,406.1,502.3,401.1,502.3,394.9 M523,394.9c0-5.6-4.1-9.6-9.5-9.6c-5.4,0-9.5,4-9.5,9.6c0,5.6,4,9.6,9.5,9.6
		C518.9,404.5,523,400.5,523,394.9 M509.4,388h4.4c2.8,0,4.2,1.8,4.2,3.8c0,2-1.3,3.2-3.6,3.5c0.6,0.5,1,1,1.6,1.8l3.2,4.5h-2.4
		l-3.3-4.8c-0.7-1-1.1-1.3-2.1-1.3v6.1h-2V388z M512.8,393.9c1.5,0,3.2-0.2,3.2-2.1c0-1.3-0.7-2.1-2.5-2.1h-2v4.3H512.8z M42.7,380
		L39,368.2H21.2l1.7,31.5c10.2,3.7,26.2,6,40.9,6c32.4,0,51-14.8,51-40.6c0-23.5-13.7-30.1-34.6-37.6c-2.6-1-7.9-2.9-10.6-3.9
		c-12.9-4.7-19.5-8.8-19.5-17.9c0-8.9,7.3-14.2,19.4-14.2c5.5,0,9.6,0.8,12.7,1.9c0.9,0.3,4,1.1,5.5,5.5l2.9,9.6h17.6l-1.7-28.9
		c-10.2-3.2-21.9-4.8-35.7-4.8c-42,0-48.3,23.3-48.3,37.2c0,21.2,12,29.3,29.8,35.8c2.6,1,7.8,3.1,10.4,4.1
		c12.2,4.6,22.4,9.2,22.4,19.9c0,10.5-8.2,17-21.3,17c-6.2,0-10.7-0.8-14.4-2.1C45.2,385.2,43.3,382.4,42.7,380 M163.5,316.8
		c-23.9,0-40.8,15.8-40.8,42.9c0,27.3,14.2,44,43.2,44c15.3,0,24.6-4.4,30.2-8v-12.8c-5.8,1.9-12.8,3.9-24,3.9
		c-14.5,0-23-6.9-24.3-23.8h52.2C200.1,330.8,188.7,316.8,163.5,316.8 M147.9,351.3c1.1-15.1,6.6-20.3,15-20.3c8,0,12.9,5,12.9,19.4
		L147.9,351.3z M317.5,311.6c-2,9.9-14.8,10.8-14.8,10.8v10.7h11.5v47.9c0,16.7,8.8,22.2,24.7,22.2c8.5,0,15.4-2.4,19.2-4.7v-12.1
		c-2.5,0.6-5.7,1.1-8.5,1.1c-7.9,0-11-2.8-11-10.7v-43.6h20.7v-14.7h-20.7V299h-19.1C318.4,308,317.5,311.6,317.5,311.6
		 M367.5,401.6H414v-11.5c0,0-7.2-0.4-8.3-0.7c-1.1-0.3-3.8-1.2-3.8-5.2l0-42c4.9-2.5,10.6-3.8,18.3-3.8c2.2,0,5,0.1,6.9,0.6v-21.4
		c-1-0.3-2.8-0.6-4.3-0.6c-9.5,0-16.7,6-21.1,12.9h-1v-8.3c-0.3-5.1-4.5-4.4-4.5-4.4l-29,3.4v12l10.2,2.5v49c0,4.1-2.6,5.1-3.8,5.3
		c-1.2,0.2-6.1,0.7-6.1,0.7V401.6z M217.4,384.1c0,4.1-2.6,5.1-3.8,5.3c-1.2,0.2-6.1,0.7-6.1,0.7v11.5h42.5v-11.5
		c0,0-3.3-0.4-4.4-0.7c-1.1-0.3-3.8-1.2-3.8-5.2v-46.2c4.1-1.4,8.2-2.7,13.1-2.7c8,0,12,2.5,12,10.7v38.1c0,4.1-2.9,5.2-3.8,5.3
		c-0.9,0.1-4.4,0.7-4.4,0.7v11.5h42.1v-11.5c0,0-4.5-0.4-5.7-0.7c-1.2-0.4-3.8-1.3-3.8-5.2v-46.4c0-15.1-8.7-21-22-21
		c-11.2,0-19.5,3.9-27.6,9.6h-0.9v-4.8c-0.3-5.1-4.5-4.4-4.5-4.4l-29,3.4v12l10.2,2.5V384.1z M460.7,398.1l-19.1-65.5l-7.8-2.2
		v-11.7h42.4v11.7l-8.6,1.9l12.4,47h0.6l17.8-47l-8.6-1.9v-11.7h34.6v11.7l-7.5,2.2l-31.3,82c-5.6,14.8-12.7,22.2-28.4,22.2
		c-5.2,0-11.6-1.3-14.8-2.7V419c3.7,0.8,5.9,1.1,8.6,1.1c7.5,0,12.7-2.1,15.9-9.2c0.9-1.7,3.7-9.3,3.7-9.3H465
		C462.2,401.6,461.2,399.8,460.7,398.1"/>
</g>
</svg>
